<?xml version="1.0" encoding="utf-8"?>
<!-- Generator: Adobe Illustrator 15.1.0, SVG Export Plug-In . SVG Version: 6.00 Build 0)  -->
<!DOCTYPE svg PUBLIC "-//W3C//DTD SVG 1.1//EN" "http://www.w3.org/Graphics/SVG/1.1/DTD/svg11.dtd">
<svg version="1.1" xmlns="http://www.w3.org/2000/svg" xmlns:xlink="http://www.w3.org/1999/xlink" x="0px" y="0px" width="200px"
	 height="30px" viewBox="0 0 200 30" enable-background="new 0 0 200 30" xml:space="preserve">
<g id="Ebene_1" display="none">
	<g display="inline">
		<polygon fill="#C6C7C8" points="16.625,3.182 20.14,10.304 28,11.446 22.313,16.99 23.655,24.818 16.625,21.122 9.595,24.818 
			10.938,16.99 5.25,11.446 13.11,10.304 		"/>
	</g>
	<g display="inline">
		<path fill="#2759A2" d="M52.992,11.779c0.456,0.727,0.684,1.731,0.684,3.015v4.608c0,0.313-0.102,0.572-0.306,0.783
			c-0.204,0.209-0.462,0.314-0.774,0.314c-0.313,0-0.57-0.105-0.774-0.314c-0.204-0.211-0.306-0.471-0.306-0.783v-4.608
			c0-0.66-0.129-1.179-0.387-1.557c-0.258-0.378-0.711-0.567-1.359-0.567c-0.672,0-1.197,0.201-1.575,0.603
			c-0.378,0.402-0.567,0.909-0.567,1.521v4.608c0,0.313-0.102,0.572-0.306,0.783c-0.204,0.209-0.462,0.314-0.774,0.314
			s-0.57-0.105-0.774-0.314c-0.204-0.211-0.306-0.471-0.306-0.783v-4.608c0-0.66-0.129-1.179-0.387-1.557
			c-0.258-0.378-0.711-0.567-1.359-0.567c-0.672,0-1.197,0.201-1.575,0.603c-0.378,0.402-0.567,0.909-0.567,1.521v4.608
			c0,0.313-0.102,0.572-0.306,0.783C41.07,20.395,40.812,20.5,40.5,20.5s-0.57-0.105-0.774-0.314
			c-0.204-0.211-0.306-0.471-0.306-0.783v-7.435c0-0.312,0.102-0.573,0.306-0.783c0.204-0.21,0.462-0.315,0.774-0.315
			s0.57,0.105,0.774,0.315s0.306,0.471,0.306,0.783v0.288c0.324-0.432,0.735-0.801,1.233-1.107s1.053-0.459,1.665-0.459
			c1.512,0,2.478,0.66,2.898,1.98c0.276-0.504,0.693-0.96,1.251-1.368c0.558-0.408,1.191-0.612,1.899-0.612
			C51.714,10.69,52.536,11.053,52.992,11.779z"/>
		<path fill="#2759A2" d="M64.313,16.162c-0.216,0.18-0.468,0.27-0.756,0.27h-5.94c0.144,0.709,0.474,1.264,0.99,1.666
			c0.516,0.401,1.098,0.603,1.746,0.603c0.492,0,0.876-0.046,1.152-0.136c0.276-0.09,0.495-0.186,0.657-0.287
			s0.273-0.172,0.333-0.207c0.216-0.108,0.42-0.162,0.612-0.162c0.252,0,0.468,0.09,0.648,0.27c0.18,0.18,0.27,0.391,0.27,0.631
			c0,0.323-0.168,0.617-0.504,0.881c-0.336,0.277-0.786,0.511-1.35,0.703c-0.564,0.191-1.134,0.287-1.71,0.287
			c-1.008,0-1.887-0.209-2.637-0.63c-0.75-0.42-1.329-0.999-1.737-1.737c-0.408-0.737-0.612-1.568-0.612-2.493
			c0-1.032,0.216-1.938,0.648-2.718c0.432-0.78,1.002-1.377,1.71-1.791s1.464-0.621,2.268-0.621c0.792,0,1.539,0.216,2.241,0.648
			s1.263,1.014,1.683,1.746c0.42,0.732,0.63,1.524,0.63,2.376C64.644,15.748,64.53,15.982,64.313,16.162z M57.636,14.632h4.716
			v-0.126c-0.048-0.504-0.294-0.936-0.738-1.296c-0.444-0.36-0.948-0.54-1.512-0.54C58.709,12.67,57.888,13.324,57.636,14.632z"/>
		<path fill="#2759A2" d="M72.369,10.996c0.246,0.204,0.369,0.444,0.369,0.72c0,0.372-0.096,0.651-0.288,0.837
			c-0.192,0.186-0.42,0.279-0.684,0.279c-0.18,0-0.384-0.042-0.612-0.126c-0.036-0.012-0.117-0.036-0.243-0.072
			c-0.126-0.036-0.261-0.054-0.405-0.054c-0.313,0-0.612,0.096-0.9,0.288c-0.288,0.192-0.525,0.483-0.711,0.873
			c-0.186,0.39-0.279,0.855-0.279,1.395v4.266c0,0.313-0.102,0.572-0.306,0.783c-0.204,0.209-0.462,0.314-0.774,0.314
			s-0.57-0.105-0.774-0.314c-0.204-0.211-0.306-0.471-0.306-0.783v-7.435c0-0.312,0.102-0.573,0.306-0.783
			c0.204-0.21,0.462-0.315,0.774-0.315s0.57,0.105,0.774,0.315s0.306,0.471,0.306,0.783v0.234c0.276-0.492,0.672-0.867,1.188-1.125
			c0.516-0.258,1.068-0.387,1.656-0.387C71.82,10.69,72.123,10.792,72.369,10.996z"/>
		<path fill="#2759A2" d="M82.62,19.42c0,0.301-0.117,0.553-0.351,0.756c-0.234,0.205-0.483,0.307-0.747,0.307
			c-0.312,0-0.576-0.12-0.792-0.36l-3.24-3.42l-0.882,0.81v1.891c0,0.313-0.102,0.572-0.306,0.783
			c-0.204,0.209-0.462,0.314-0.774,0.314c-0.313,0-0.57-0.105-0.774-0.314c-0.204-0.211-0.306-0.471-0.306-0.783V8.278
			c0-0.312,0.102-0.573,0.306-0.783s0.462-0.315,0.774-0.315c0.312,0,0.57,0.105,0.774,0.315c0.204,0.21,0.306,0.471,0.306,0.783
			v6.66l3.852-3.726c0.228-0.228,0.492-0.342,0.792-0.342c0.264,0,0.501,0.111,0.711,0.333c0.209,0.222,0.315,0.447,0.315,0.675
			c0,0.288-0.144,0.558-0.432,0.81l-2.718,2.502l3.15,3.419C82.505,18.85,82.62,19.12,82.62,19.42z"/>
		<path fill="#2759A2" d="M92.411,16.162c-0.216,0.18-0.468,0.27-0.756,0.27h-5.94c0.144,0.709,0.474,1.264,0.99,1.666
			c0.516,0.401,1.098,0.603,1.746,0.603c0.492,0,0.876-0.046,1.152-0.136c0.276-0.09,0.495-0.186,0.657-0.287
			s0.273-0.172,0.333-0.207c0.216-0.108,0.42-0.162,0.612-0.162c0.252,0,0.468,0.09,0.648,0.27c0.18,0.18,0.27,0.391,0.27,0.631
			c0,0.323-0.168,0.617-0.504,0.881c-0.336,0.277-0.786,0.511-1.35,0.703c-0.564,0.191-1.134,0.287-1.71,0.287
			c-1.008,0-1.887-0.209-2.637-0.63c-0.75-0.42-1.329-0.999-1.737-1.737c-0.408-0.737-0.612-1.568-0.612-2.493
			c0-1.032,0.216-1.938,0.648-2.718c0.432-0.78,1.002-1.377,1.71-1.791s1.464-0.621,2.268-0.621c0.792,0,1.539,0.216,2.241,0.648
			s1.263,1.014,1.683,1.746c0.42,0.732,0.629,1.524,0.629,2.376C92.741,15.748,92.627,15.982,92.411,16.162z M85.733,14.632h4.716
			v-0.126c-0.048-0.504-0.294-0.936-0.738-1.296c-0.444-0.36-0.948-0.54-1.512-0.54C86.807,12.67,85.985,13.324,85.733,14.632z"/>
		<path fill="#2759A2" d="M102.239,11.779c0.468,0.727,0.701,1.731,0.701,3.015v4.608c0,0.313-0.102,0.572-0.306,0.783
			c-0.204,0.209-0.462,0.314-0.774,0.314c-0.312,0-0.569-0.105-0.773-0.314c-0.204-0.211-0.306-0.471-0.306-0.783v-4.608
			c0-0.66-0.139-1.179-0.414-1.557c-0.276-0.378-0.75-0.567-1.423-0.567c-0.695,0-1.241,0.201-1.638,0.603
			c-0.396,0.402-0.594,0.909-0.594,1.521v4.608c0,0.313-0.103,0.572-0.306,0.783c-0.205,0.209-0.463,0.314-0.774,0.314
			c-0.313,0-0.57-0.105-0.774-0.314c-0.204-0.211-0.306-0.471-0.306-0.783v-7.435c0-0.312,0.102-0.573,0.306-0.783
			s0.462-0.315,0.774-0.315c0.312,0,0.569,0.105,0.774,0.315c0.203,0.21,0.306,0.471,0.306,0.783v0.306
			c0.324-0.432,0.747-0.804,1.269-1.116c0.522-0.312,1.096-0.468,1.72-0.468C100.925,10.69,101.771,11.053,102.239,11.779z"/>
	</g>
</g>
<g id="nicht_merken">
	<g>
		<polygon fill="#3F942E" points="16.625,3.182 20.14,10.304 28,11.446 22.313,16.99 23.655,24.818 16.625,21.122 9.595,24.818 
			10.938,16.99 5.25,11.446 13.11,10.304 		"/>
	</g>
	<g>
		<path fill="#2759A2" d="M47.106,11.779c0.468,0.727,0.702,1.731,0.702,3.015v4.608c0,0.313-0.102,0.572-0.306,0.783
			c-0.204,0.209-0.462,0.314-0.774,0.314s-0.57-0.105-0.774-0.314c-0.204-0.211-0.306-0.471-0.306-0.783v-4.608
			c0-0.66-0.138-1.179-0.414-1.557c-0.276-0.378-0.75-0.567-1.422-0.567c-0.696,0-1.242,0.201-1.638,0.603
			c-0.396,0.402-0.594,0.909-0.594,1.521v4.608c0,0.313-0.102,0.572-0.306,0.783C41.07,20.395,40.812,20.5,40.5,20.5
			s-0.57-0.105-0.774-0.314c-0.204-0.211-0.306-0.471-0.306-0.783v-7.435c0-0.312,0.102-0.573,0.306-0.783
			c0.204-0.21,0.462-0.315,0.774-0.315s0.57,0.105,0.774,0.315s0.306,0.471,0.306,0.783v0.306c0.324-0.432,0.747-0.804,1.269-1.116
			s1.095-0.468,1.719-0.468C45.792,10.69,46.638,11.053,47.106,11.779z"/>
		<path fill="#2759A2" d="M50.22,9.502C50.052,9.37,49.968,9.136,49.968,8.8V8.458c0-0.336,0.09-0.57,0.27-0.702
			c0.18-0.132,0.468-0.198,0.864-0.198c0.42,0,0.714,0.066,0.882,0.198c0.168,0.132,0.252,0.366,0.252,0.702V8.8
			c0,0.348-0.087,0.585-0.261,0.711C51.801,9.637,51.504,9.7,51.084,9.7C50.676,9.7,50.388,9.634,50.22,9.502z M51.876,20.186
			c-0.204,0.209-0.462,0.314-0.774,0.314s-0.57-0.105-0.774-0.314c-0.204-0.211-0.306-0.471-0.306-0.783v-7.435
			c0-0.312,0.102-0.573,0.306-0.783c0.204-0.21,0.462-0.315,0.774-0.315s0.57,0.105,0.774,0.315s0.306,0.471,0.306,0.783v7.435
			C52.182,19.715,52.08,19.975,51.876,20.186z"/>
		<path fill="#2759A2" d="M61.056,11.167c0.624,0.318,0.936,0.741,0.936,1.269c0,0.264-0.078,0.495-0.234,0.693
			c-0.156,0.198-0.36,0.297-0.612,0.297c-0.192,0-0.348-0.027-0.468-0.081c-0.12-0.054-0.237-0.126-0.351-0.216
			c-0.114-0.09-0.225-0.165-0.333-0.225c-0.12-0.06-0.297-0.114-0.531-0.162c-0.234-0.048-0.423-0.072-0.567-0.072
			c-0.9,0-1.605,0.279-2.115,0.837c-0.51,0.558-0.765,1.287-0.765,2.187c0,0.865,0.258,1.582,0.774,2.152
			c0.516,0.569,1.176,0.854,1.98,0.854c0.588,0,1.026-0.072,1.314-0.216c0.072-0.036,0.171-0.1,0.297-0.189s0.243-0.158,0.351-0.207
			c0.108-0.048,0.24-0.072,0.396-0.072c0.3,0,0.537,0.097,0.711,0.289c0.174,0.191,0.261,0.438,0.261,0.737
			c0,0.288-0.168,0.558-0.504,0.81c-0.336,0.252-0.78,0.453-1.332,0.604c-0.552,0.15-1.14,0.225-1.764,0.225
			c-0.924,0-1.737-0.216-2.439-0.647c-0.702-0.433-1.245-1.028-1.629-1.791c-0.384-0.763-0.576-1.611-0.576-2.547
			c0-0.972,0.201-1.836,0.603-2.592s0.963-1.347,1.683-1.773s1.536-0.639,2.448-0.639C59.609,10.69,60.432,10.849,61.056,11.167z"/>
		<path fill="#2759A2" d="M71.189,11.779c0.456,0.727,0.684,1.731,0.684,3.015v4.608c0,0.313-0.102,0.572-0.306,0.783
			c-0.204,0.209-0.462,0.314-0.774,0.314s-0.57-0.105-0.774-0.314c-0.204-0.211-0.306-0.471-0.306-0.783v-4.608
			c0-0.66-0.129-1.179-0.387-1.557c-0.258-0.378-0.711-0.567-1.359-0.567c-0.672,0-1.197,0.201-1.575,0.603
			c-0.378,0.402-0.567,0.909-0.567,1.521v4.608c0,0.313-0.102,0.572-0.306,0.783c-0.204,0.209-0.462,0.314-0.774,0.314
			s-0.57-0.105-0.774-0.314c-0.204-0.211-0.306-0.471-0.306-0.783V8.278c0-0.312,0.102-0.573,0.306-0.783
			c0.204-0.21,0.462-0.315,0.774-0.315s0.57,0.105,0.774,0.315s0.306,0.471,0.306,0.783v3.978c0.324-0.432,0.735-0.801,1.233-1.107
			s1.053-0.459,1.665-0.459C69.912,10.69,70.733,11.053,71.189,11.779z"/>
		<path fill="#2759A2" d="M79.317,18.709c0.138,0.162,0.207,0.375,0.207,0.639c0,0.324-0.177,0.598-0.531,0.819
			c-0.354,0.222-0.753,0.333-1.197,0.333c-0.744,0-1.371-0.158-1.881-0.477c-0.51-0.318-0.765-0.993-0.765-2.025V13.03h-0.828
			c-0.288,0-0.528-0.096-0.72-0.288c-0.192-0.192-0.288-0.432-0.288-0.72c0-0.276,0.096-0.507,0.288-0.693
			c0.192-0.186,0.432-0.279,0.72-0.279h0.828V9.898c0-0.312,0.105-0.573,0.315-0.783S75.936,8.8,76.248,8.8
			c0.3,0,0.552,0.105,0.756,0.315s0.306,0.471,0.306,0.783v1.152h1.278c0.288,0,0.528,0.096,0.72,0.288
			c0.192,0.192,0.288,0.432,0.288,0.72c0,0.276-0.096,0.507-0.288,0.693c-0.192,0.186-0.432,0.279-0.72,0.279H77.31v4.878
			c0,0.252,0.066,0.436,0.198,0.549c0.132,0.114,0.312,0.171,0.54,0.171c0.096,0,0.228-0.024,0.396-0.071
			c0.144-0.061,0.282-0.091,0.414-0.091C79.026,18.466,79.179,18.547,79.317,18.709z"/>
		<path fill="#2759A2" d="M100.188,11.779c0.456,0.727,0.685,1.731,0.685,3.015v4.608c0,0.313-0.103,0.572-0.307,0.783
			c-0.204,0.209-0.462,0.314-0.773,0.314c-0.313,0-0.57-0.105-0.774-0.314c-0.204-0.211-0.306-0.471-0.306-0.783v-4.608
			c0-0.66-0.129-1.179-0.387-1.557c-0.259-0.378-0.711-0.567-1.359-0.567c-0.672,0-1.197,0.201-1.575,0.603
			c-0.378,0.402-0.566,0.909-0.566,1.521v4.608c0,0.313-0.103,0.572-0.307,0.783c-0.204,0.209-0.462,0.314-0.773,0.314
			c-0.313,0-0.57-0.105-0.774-0.314c-0.204-0.211-0.306-0.471-0.306-0.783v-4.608c0-0.66-0.129-1.179-0.387-1.557
			c-0.258-0.378-0.711-0.567-1.359-0.567c-0.672,0-1.197,0.201-1.575,0.603c-0.378,0.402-0.567,0.909-0.567,1.521v4.608
			c0,0.313-0.102,0.572-0.306,0.783c-0.204,0.209-0.462,0.314-0.774,0.314s-0.57-0.105-0.774-0.314
			c-0.204-0.211-0.306-0.471-0.306-0.783v-7.435c0-0.312,0.102-0.573,0.306-0.783c0.204-0.21,0.462-0.315,0.774-0.315
			s0.57,0.105,0.774,0.315s0.306,0.471,0.306,0.783v0.288c0.324-0.432,0.735-0.801,1.233-1.107s1.053-0.459,1.665-0.459
			c1.512,0,2.478,0.66,2.898,1.98c0.275-0.504,0.692-0.96,1.251-1.368c0.558-0.408,1.19-0.612,1.898-0.612
			C98.91,10.69,99.731,11.053,100.188,11.779z"/>
		<path fill="#2759A2" d="M111.51,16.162c-0.216,0.18-0.468,0.27-0.756,0.27h-5.939c0.144,0.709,0.474,1.264,0.989,1.666
			c0.516,0.401,1.099,0.603,1.746,0.603c0.492,0,0.876-0.046,1.152-0.136c0.275-0.09,0.495-0.186,0.657-0.287
			c0.161-0.102,0.272-0.172,0.333-0.207c0.216-0.108,0.42-0.162,0.611-0.162c0.252,0,0.469,0.09,0.648,0.27s0.27,0.391,0.27,0.631
			c0,0.323-0.168,0.617-0.504,0.881c-0.336,0.277-0.786,0.511-1.35,0.703c-0.564,0.191-1.134,0.287-1.71,0.287
			c-1.008,0-1.888-0.209-2.638-0.63c-0.75-0.42-1.329-0.999-1.736-1.737c-0.408-0.737-0.612-1.568-0.612-2.493
			c0-1.032,0.216-1.938,0.648-2.718c0.432-0.78,1.002-1.377,1.71-1.791s1.464-0.621,2.268-0.621c0.792,0,1.539,0.216,2.241,0.648
			s1.263,1.014,1.683,1.746s0.63,1.524,0.63,2.376C111.84,15.748,111.726,15.982,111.51,16.162z M104.832,14.632h4.716v-0.126
			c-0.048-0.504-0.294-0.936-0.738-1.296c-0.443-0.36-0.947-0.54-1.512-0.54C105.906,12.67,105.084,13.324,104.832,14.632z"/>
		<path fill="#2759A2" d="M119.564,10.996c0.246,0.204,0.369,0.444,0.369,0.72c0,0.372-0.097,0.651-0.288,0.837
			c-0.192,0.186-0.42,0.279-0.684,0.279c-0.181,0-0.385-0.042-0.612-0.126c-0.036-0.012-0.117-0.036-0.243-0.072
			c-0.126-0.036-0.261-0.054-0.405-0.054c-0.312,0-0.611,0.096-0.899,0.288s-0.525,0.483-0.711,0.873
			c-0.187,0.39-0.279,0.855-0.279,1.395v4.266c0,0.313-0.103,0.572-0.306,0.783c-0.205,0.209-0.463,0.314-0.774,0.314
			c-0.313,0-0.57-0.105-0.774-0.314c-0.204-0.211-0.306-0.471-0.306-0.783v-7.435c0-0.312,0.102-0.573,0.306-0.783
			s0.462-0.315,0.774-0.315c0.312,0,0.569,0.105,0.774,0.315c0.203,0.21,0.306,0.471,0.306,0.783v0.234
			c0.275-0.492,0.672-0.867,1.188-1.125c0.517-0.258,1.068-0.387,1.656-0.387C119.016,10.69,119.318,10.792,119.564,10.996z"/>
		<path fill="#2759A2" d="M129.815,19.42c0,0.301-0.117,0.553-0.352,0.756c-0.234,0.205-0.483,0.307-0.747,0.307
			c-0.313,0-0.576-0.12-0.792-0.36l-3.24-3.42l-0.882,0.81v1.891c0,0.313-0.102,0.572-0.306,0.783
			c-0.204,0.209-0.462,0.314-0.774,0.314c-0.312,0-0.569-0.105-0.773-0.314c-0.204-0.211-0.307-0.471-0.307-0.783V8.278
			c0-0.312,0.103-0.573,0.307-0.783s0.462-0.315,0.773-0.315c0.313,0,0.57,0.105,0.774,0.315s0.306,0.471,0.306,0.783v6.66
			l3.853-3.726c0.228-0.228,0.491-0.342,0.792-0.342c0.264,0,0.501,0.111,0.711,0.333s0.314,0.447,0.314,0.675
			c0,0.288-0.144,0.558-0.432,0.81l-2.718,2.502l3.149,3.419C129.701,18.85,129.815,19.12,129.815,19.42z"/>
		<path fill="#2759A2" d="M139.606,16.162c-0.216,0.18-0.468,0.27-0.756,0.27h-5.939c0.144,0.709,0.474,1.264,0.989,1.666
			c0.516,0.401,1.099,0.603,1.746,0.603c0.492,0,0.876-0.046,1.152-0.136c0.275-0.09,0.495-0.186,0.657-0.287
			c0.161-0.102,0.272-0.172,0.333-0.207c0.216-0.108,0.42-0.162,0.611-0.162c0.252,0,0.469,0.09,0.648,0.27s0.27,0.391,0.27,0.631
			c0,0.323-0.168,0.617-0.504,0.881c-0.336,0.277-0.786,0.511-1.35,0.703c-0.564,0.191-1.134,0.287-1.71,0.287
			c-1.008,0-1.888-0.209-2.638-0.63c-0.75-0.42-1.329-0.999-1.736-1.737c-0.408-0.737-0.612-1.568-0.612-2.493
			c0-1.032,0.216-1.938,0.648-2.718c0.432-0.78,1.002-1.377,1.71-1.791s1.464-0.621,2.268-0.621c0.792,0,1.539,0.216,2.241,0.648
			s1.263,1.014,1.683,1.746s0.63,1.524,0.63,2.376C139.937,15.748,139.822,15.982,139.606,16.162z M132.929,14.632h4.716v-0.126
			c-0.048-0.504-0.294-0.936-0.738-1.296c-0.443-0.36-0.947-0.54-1.512-0.54C134.003,12.67,133.181,13.324,132.929,14.632z"/>
		<path fill="#2759A2" d="M149.436,11.779c0.468,0.727,0.701,1.731,0.701,3.015v4.608c0,0.313-0.102,0.572-0.306,0.783
			c-0.204,0.209-0.462,0.314-0.774,0.314c-0.312,0-0.569-0.105-0.773-0.314c-0.204-0.211-0.306-0.471-0.306-0.783v-4.608
			c0-0.66-0.139-1.179-0.414-1.557c-0.276-0.378-0.75-0.567-1.423-0.567c-0.695,0-1.241,0.201-1.638,0.603
			c-0.396,0.402-0.594,0.909-0.594,1.521v4.608c0,0.313-0.103,0.572-0.306,0.783c-0.205,0.209-0.463,0.314-0.774,0.314
			c-0.313,0-0.57-0.105-0.774-0.314c-0.204-0.211-0.306-0.471-0.306-0.783v-7.435c0-0.312,0.102-0.573,0.306-0.783
			s0.462-0.315,0.774-0.315c0.312,0,0.569,0.105,0.774,0.315c0.203,0.21,0.306,0.471,0.306,0.783v0.306
			c0.324-0.432,0.747-0.804,1.269-1.116c0.522-0.312,1.096-0.468,1.72-0.468C148.121,10.69,148.967,11.053,149.436,11.779z"/>
	</g>
</g>
</svg>
